<?xml version="1.0" encoding="utf-8"?>
<!-- Generator: Adobe Illustrator 24.1.1, SVG Export Plug-In . SVG Version: 6.00 Build 0)  -->
<svg id="back-custom" viewBox="0 0 100 100">
<path d="M90,70.6c0,1.7-1.4,3-3,3c-1.7,0-3-1.4-3-3c0-4.8-2-9.2-5.1-12.4C75.6,55,71.3,53,66.4,53H20.8l16.4,15.3l0,0
	c1.2,1.1,1.3,3.1,0.2,4.3c-1.1,1.2-3.1,1.3-4.3,0.2L11,52.2c-0.6-0.6-1-1.4-1-2.2s0.3-1.6,1-2.2l22-20.6c1.2-1.1,3.2-1.1,4.3,0.2
	c1.1,1.2,1.1,3.2-0.2,4.3L20.8,47h45.7c6.5,0,12.4,2.6,16.7,6.9C87.4,58.1,90,64,90,70.6z"/>
</svg>
