<?xml version="1.0" encoding="utf-8"?>
<!-- Generator: Adobe Illustrator 24.1.1, SVG Export Plug-In . SVG Version: 6.00 Build 0)  -->
<svg version="1.1" id="Layer_1" xmlns="http://www.w3.org/2000/svg" xmlns:xlink="http://www.w3.org/1999/xlink" x="0px" y="0px"
	 viewBox="0 0 100 100" style="enable-background:new 0 0 100 100;" xml:space="preserve">
<path d="M89,47.8c0.6,0.6,1,1.4,1,2.2s-0.3,1.6-1,2.2L67,72.8l0,0c-1.2,1.1-3.2,1.1-4.3-0.2c-1.1-1.2-1.1-3.2,0.2-4.3L79.2,53H33.6
	c-4.8,0-9.2,2-12.4,5.1c-3.2,3.2-5.1,7.5-5.1,12.4c0,1.7-1.4,3-3,3c-1.7,0-3-1.4-3-3c0-6.5,2.6-12.4,6.9-16.7s10.2-6.9,16.7-6.9
	h45.7L62.8,31.7c-1.2-1.1-1.3-3.1-0.2-4.3c1.1-1.2,3.1-1.3,4.3-0.2L89,47.8z"/>
</svg>
