<?xml version="1.0" encoding="utf-8"?>
<!-- Generator: Adobe Illustrator 24.0.2, SVG Export Plug-In . SVG Version: 6.00 Build 0)  -->
<svg version="1.1" id="image-custom" xmlns="http://www.w3.org/2000/svg"viewBox="0 0 38 38">
<path class="st0" d="M0.6,4.53v28.95h36.8V4.53H0.6z M35.08,6.85v17.16l-8.54-7.31l-8.87,7.28l-5.67-4.85l-9.07,7.37V6.85H35.08z M2.92,31.15V29.5l9.03-7.34l4.96,4.24c0,0,0,0,0,0l2.86,2.45c0.49,0.42,1.22,0.36,1.64-0.13c0.42-0.49,0.36-1.22-0.13-1.64 l-1.83-1.57l7.05-5.78l8.02,6.86c0.16,0.14,0.36,0.22,0.55,0.26v4.3H2.92z M9.56,18.01c2.42,0,4.39-1.96,4.39-4.39 c0-2.42-1.96-4.39-4.39-4.39c-2.42,0-4.39,1.96-4.39,4.39C5.17,16.05,7.14,18.01,9.56,18.01z M8.1,12.16 c0.38-0.38,0.89-0.6,1.46-0.61c0.57,0,1.08,0.23,1.46,0.6c0.38,0.38,0.6,0.89,0.6,1.46c0,0.57-0.23,1.08-0.61,1.46 c-0.38,0.38-0.89,0.6-1.46,0.6c-0.57,0-1.08-0.23-1.46-0.61C7.73,14.7,7.5,14.2,7.5,13.62C7.5,13.05,7.73,12.54,8.1,12.16z"/>
</svg>
