<?xml version="1.0" encoding="utf-8"?>
<!-- Generator: Adobe Illustrator 24.1.1, SVG Export Plug-In . SVG Version: 6.00 Build 0)  -->
<svg id="menu-custom" viewBox="0 0 100 100">
<path d="M73.5,12.1h-47c-13.6,0-24.7,11.1-24.7,24.7v26.3c0,13.6,11.1,24.7,24.7,24.7h46.9c13.6,0,24.7-11.1,24.7-24.7V36.8
	C98.2,23.2,87.1,12.1,73.5,12.1z M92.1,63.2c0,10.3-8.4,18.6-18.6,18.6h-47c-10.3,0-18.6-8.4-18.6-18.6V36.8
	c0-10.3,8.4-18.6,18.6-18.6h46.9c10.3,0,18.6,8.4,18.6,18.6L92.1,63.2L92.1,63.2z M23.9,47H76v6H23.9V47z M23.9,60.6H76v6.1H23.9
	V60.6z M23.9,33.3H76v6.1H23.9V33.3z"/>
</svg>
