<?xml version="1.0" encoding="utf-8"?>
<!-- Generator: Adobe Illustrator 24.1.1, SVG Export Plug-In . SVG Version: 6.00 Build 0)  -->
<svg id="pages-custom" viewBox="0 0 100 100">
<path d="M82.4,30.4L82.4,30.4L63.2,11.2l0,0c-0.6-0.6-1.3-0.9-2.1-0.9H37.2c-0.8,0-1.6,0.3-2.2,0.9c-0.6,0.6-0.9,1.3-0.9,2.2V28
	H19.7c-0.8,0-1.6,0.3-2.2,0.9s-0.9,1.3-0.9,2.2v55.8c0,0.8,0.3,1.6,0.9,2.2s1.3,0.9,2.2,0.9h43.1c0.8,0,1.6-0.3,2.1-0.9
	c0.6-0.6,0.9-1.3,0.9-2.2V72.1h14.4c0.8,0,1.6-0.3,2.1-0.9c0.6-0.6,0.9-1.3,0.9-2.2V32.5C83.3,31.7,83,30.9,82.4,30.4L82.4,30.4z
	 M64.1,20.7l8.8,8.8h-8.8V20.7z M59.8,83.6h-37V34h17.8v16.2c0,0.8,0.3,1.6,0.9,2.2s1.3,0.9,2.2,0.9h16.2v30.3H59.8z M55.5,47.1
	h-8.8v-8.8L55.5,47.1z M77.2,66H65.8V50.1c0-0.8-0.3-1.6-0.9-2.2l0,0l0,0L45.7,28.8l0,0c-0.6-0.6-1.3-0.9-2.1-0.9h-3.4V16.4H58v16.2
	c0,0.8,0.3,1.6,0.9,2.2s1.3,0.9,2.2,0.9h16.2V66H77.2z"/>
</svg>
