<?xml version="1.0" encoding="utf-8"?>
<!-- Generator: Adobe Illustrator 24.0.2, SVG Export Plug-In . SVG Version: 6.00 Build 0)  -->
<svg version="1.1" id="parts-custom" xmlns="http://www.w3.org/2000/svg" viewBox="0 0 38 38"><path class="st0" d="M31.62,19c0-0.49-0.04-0.95-0.1-1.41l2.71-2.8l-0.22-0.66c-0.69-2.14-1.84-4.07-3.3-5.69l-0.47-0.52l-3.76,0.94c-0.76-0.56-1.58-1.03-2.44-1.4L22.97,3.7l-0.68-0.14C21.23,3.33,20.13,3.21,19,3.21c-1.13,0-2.23,0.12-3.28,0.35L15.03,3.7l-1.07,3.76c-0.87,0.38-1.69,0.85-2.44,1.4L7.75,7.92L7.28,8.43c-1.47,1.62-2.61,3.55-3.3,5.69l-0.22,0.66l2.71,2.8c-0.06,0.46-0.1,0.92-0.1,1.41c0,0.49,0.04,0.95,0.1,1.41l-2.71,2.8l0.22,0.66c0.69,2.14,1.84,4.07,3.3,5.69l0.47,0.52l3.76-0.94c0.76,0.56,1.58,1.03,2.44,1.4l1.07,3.76l0.68,0.14c1.06,0.22,2.16,0.35,3.28,0.35c1.13,0,2.23-0.12,3.29-0.35l0.68-0.14l1.07-3.76c0.87-0.38,1.69-0.85,2.44-1.4l3.76,0.94l0.47-0.52c1.47-1.62,2.61-3.55,3.3-5.69l0.22-0.66l-2.71-2.8C31.58,19.95,31.62,19.49,31.62,19z M29.44,27.49l-3.49-0.88l-0.45,0.37c-0.84,0.68-1.8,1.23-2.84,1.63l-0.54,0.21l-0.99,3.48c-0.69,0.11-1.4,0.17-2.12,0.17c-0.72,0-1.43-0.06-2.12-0.17l-0.99-3.48l-0.54-0.21c-1.04-0.4-2-0.95-2.84-1.63l-0.45-0.37l-3.49,0.88c-0.9-1.1-1.62-2.34-2.14-3.68l2.52-2.6l-0.09-0.57C8.76,20.08,8.71,19.54,8.71,19c0-0.54,0.06-1.08,0.14-1.63l0.09-0.57l-2.52-2.6c0.51-1.34,1.24-2.58,2.14-3.68l3.49,0.88l0.45-0.37c0.84-0.68,1.8-1.23,2.84-1.63l0.54-0.21l0.99-3.48c0.69-0.11,1.4-0.17,2.12-0.17c0.72,0,1.43,0.06,2.13,0.17l0.99,3.48l0.54,0.21c1.04,0.4,2,0.95,2.84,1.63l0.45,0.37l3.49-0.88c0.9,1.1,1.62,2.34,2.14,3.68l-2.52,2.6l0.09,0.57c0.09,0.55,0.14,1.09,0.14,1.63c0,0.54-0.06,1.08-0.14,1.63l-0.09,0.57l2.52,2.6C31.06,25.15,30.34,26.39,29.44,27.49z M19,11.58c-4.1,0-7.42,3.32-7.42,7.42c0,4.1,3.32,7.42,7.42,7.42c4.1,0,7.42-3.32,7.42-7.42C26.42,14.9,23.1,11.58,19,11.58z M22.6,22.6c-0.93,0.92-2.19,1.49-3.6,1.49c-1.41,0-2.68-0.57-3.6-1.49c-0.92-0.93-1.49-2.19-1.49-3.6c0-1.41,0.57-2.68,1.49-3.6c0.93-0.92,2.19-1.49,3.6-1.49c1.41,0,2.68,0.57,3.6,1.49c0.92,0.93,1.49,2.19,1.49,3.6C24.09,20.41,23.52,21.68,22.6,22.6z"/></svg>
