<?xml version="1.0" encoding="utf-8"?>
<!-- Generator: Adobe Illustrator 24.1.1, SVG Export Plug-In . SVG Version: 6.00 Build 0)  -->
<svg id="toolbox-custom" viewBox="0 0 100 100">
<path d="M90.1,28.8H65.3v-3.1c0-1.9-0.8-3.7-2.1-5c-1.3-1.3-3.1-2.1-5-2.1H41.8c-1.9,0-3.7,0.8-5,2.1c-1.3,1.3-2.1,3.1-2.1,5v3.1
	H9.9c-3.8,0-6.9,3.1-6.9,6.9v9.8v6.1V75c0,1.8,1.5,3.3,3.3,3.3h87.5c1.8,0,3.3-1.5,3.3-3.3V51.6v-6.1v-9.8
	C97,31.9,93.9,28.8,90.1,28.8z M40.8,25.7c0-0.3,0.1-0.5,0.3-0.7s0.4-0.3,0.7-0.3h16.4c0.3,0,0.5,0.1,0.7,0.3
	c0.2,0.2,0.3,0.4,0.3,0.7v3.1H40.8V25.7z M90.9,72.2H9.1V51.6h28.8v8.2l12.2,5l12.2-5v-2v-6.1h28.8v20.5H90.9z M56.1,55.7L50,58.2
	l-6.1-2.5v-9.2H50h6.1V55.7z M62.2,45.5v-5.2H50H37.8v5.2H9.1v-9.8c0-0.5,0.4-0.9,0.9-0.9h80.1c0.5,0,0.9,0.4,0.9,0.9v9.8H62.2z"/>
</svg>
