<?xml version="1.0" encoding="utf-8"?>
<!-- Generator: Adobe Illustrator 24.1.1, SVG Export Plug-In . SVG Version: 6.00 Build 0)  -->
<svg id="warning-custom" viewBox="0 0 100 100">
<path d="M45.9,14.7L45.9,14.7L45.9,14.7L45.9,14.7z M92.1,80.6c0.4,0.7,0.6,1.6,0.6,2.3c0,1.9-1.1,3.5-2.8,4.3
	c-0.6,0.3-1.2,0.4-1.9,0.4H12c-0.7,0-1.3-0.1-1.9-0.4c-0.6-0.2-1.1-0.6-1.5-1c-0.8-0.9-1.3-2-1.3-3.3c0-0.8,0.2-1.6,0.6-2.4l38-65.8
	c0.4-0.8,1.1-1.4,1.8-1.8c0.7-0.4,1.5-0.6,2.3-0.6s1.6,0.2,2.3,0.6c0.7,0.4,1.4,1,1.8,1.8L92.1,80.6L92.1,80.6z M50,19.8L14.4,81.6
	h71.3L50,19.8z M86.8,83.6L86.8,83.6L86.8,83.6L86.8,83.6z M47,37.9v22.5c0,1.7,1.4,3,3,3c1.7,0,3-1.4,3-3V37.9c0-1.7-1.4-3-3-3
	C48.3,34.9,47,36.3,47,37.9z M50,68.4c-2.1,0-3.9,1.7-3.9,3.9c0,2.1,1.7,3.9,3.9,3.9s3.9-1.7,3.9-3.9C53.9,70.2,52.1,68.4,50,68.4z"
	/>
</svg>
